<?xml version="1.0" encoding="utf-8"?>
<!-- Generator: Adobe Illustrator 18.1.0, SVG Export Plug-In . SVG Version: 6.00 Build 0)  -->
<!DOCTYPE svg PUBLIC "-//W3C//DTD SVG 1.1//EN" "http://www.w3.org/Graphics/SVG/1.1/DTD/svg11.dtd">
<svg version="1.1" id="Layer_1" xmlns="http://www.w3.org/2000/svg" xmlns:xlink="http://www.w3.org/1999/xlink" x="0px" y="0px"
	 viewBox="0 0 196 196" enable-background="new 0 0 196 196" xml:space="preserve">
<rect x="11.9" y="12" fill="#FAFAFA" width="34.6" height="34.6"/>
<rect x="57.2" y="12" fill="#FAFAFA" width="34.6" height="34.6"/>
<rect x="102.5" y="12" fill="#FAFAFA" width="34.6" height="34.6"/>
<rect x="57.2" y="12" fill="#FAFAFA" width="34.6" height="34.6"/>
<rect x="102.5" y="12" fill="#FAFAFA" width="34.6" height="34.6"/>
<rect x="147.8" y="12" fill="#FAFAFA" width="34.6" height="34.6"/>
<rect x="11.9" y="57.3" fill="#FAFAFA" width="34.6" height="34.6"/>
<rect x="57.2" y="57.3" fill="#FAFAFA" width="34.6" height="34.6"/>
<rect x="102.5" y="57.3" fill="#FAFAFA" width="34.6" height="34.6"/>
<rect x="57.2" y="57.3" fill="#FAFAFA" width="34.6" height="34.6"/>
<rect x="102.5" y="57.3" fill="#FAFAFA" width="34.6" height="34.6"/>
<rect x="147.8" y="57.3" fill="#FAFAFA" width="34.6" height="34.6"/>
<rect x="11.9" y="102.6" fill="#FAFAFA" width="34.6" height="34.6"/>
<rect x="57.2" y="102.6" fill="#FAFAFA" width="34.6" height="34.6"/>
<rect x="102.5" y="102.6" fill="#FAFAFA" width="34.6" height="34.6"/>
<rect x="57.2" y="102.6" fill="#FAFAFA" width="34.6" height="34.6"/>
<rect x="102.5" y="102.6" fill="#FAFAFA" width="34.6" height="34.6"/>
<rect x="11.9" y="147.9" fill="#FAFAFA" width="34.6" height="34.6"/>
<rect x="57.2" y="147.9" fill="#FAFAFA" width="34.6" height="34.6"/>
<rect x="57.2" y="147.9" fill="#FAFAFA" width="34.6" height="34.6"/>
</svg>
